<svg width="32" height="32" viewBox="0 0 1024 1024" fill="none" xmlns="http://www.w3.org/2000/svg">
<rect width="1024" height="1024" rx="224" fill="#0F1C2E"/>
<path d="M556 246C656.516 246 738 260.327 738 278C738 282.706 732.221 287.174 721.844 291.198C731.775 300.336 738 313.44 738 328C738 355.614 715.614 378 688 378H491.281C493.493 386.654 495 403.783 495 423.5C495 436.574 494.335 448.511 493.244 457.593C507.056 453.129 539.133 450 576.5 450C612.636 450 643.825 452.927 658.332 457.156C673.811 459.239 686 481.878 686 509.5C686 509.985 685.995 510.468 685.987 510.95C685.995 511.299 686 511.649 686 512C686 514.421 685.827 516.802 685.494 519.132C683.502 537.937 675.783 553.224 665.621 559.241C666.52 559.696 666.992 560.164 666.996 560.649C667.036 565.344 623.419 569.53 569.574 570C534.834 570.303 504.324 568.983 487.035 566.749C491.656 579.53 495 616.672 495 660.5C495 711.488 490.477 753.426 484.68 758.487C480.022 776.609 463.575 790 444 790H428C406.263 790 388.383 773.487 386.22 752.321C372.27 729.17 362.024 679.009 361.006 620.698C359.879 556.121 370.412 501.138 386 481.613V475C364.461 475 347 428.661 347 371.5C347 317.776 362.424 273.614 382.161 268.496C405.183 255.464 474.306 246 556 246Z" fill="#EBDCCB"/>
</svg>
